<?xml version="1.0"?><svg width="394.414" height="554.933" xmlns="http://www.w3.org/2000/svg">
 <title>red blood</title>

 <metadata id="metadata7">image/svg+xml</metadata>
 <g>
  <title>Layer 1</title>
  <g id="layer1">
   <g id="g2462">
    <path d="m394.413086,363.095001c0,105.894012 -88.339966,191.837982 -197.189941,191.837982c-108.849854,0 -199.199951,-85.962982 -197.189941,-191.837982c2.679932,-142.019989 111.090088,-199.866989 197.189941,-363.095001c91.459961,157.876999 197.189941,257.200012 197.189941,363.095001z" fill="#ff0000" id="path2530"/>
    <path d="m387.613159,362.649994c0,101.679016 -84.830078,184.202057 -189.349976,184.202057c-104.51001,0 -191.27002,-82.541046 -189.340088,-184.202057c2.570068,-136.366974 106.670166,-191.910995 189.340088,-348.642181c87.819946,151.592194 189.349976,246.962189 189.349976,348.642181z" fill="#ff0000" id="path3520"/>
    <path d="m384.31311,358.708008c0,100.471008 -83.809937,182.011963 -187.089966,182.011963c-103.27002,0 -189,-81.55896 -187.090088,-182.011963c2.540039,-134.744003 105.399902,-189.628006 187.090088,-344.495407c56.099976,499.609421 187.089966,244.025406 187.089966,344.495407z" fill="#ff0000" id="path3542"/>
    <path d="m394.413086,363.095001c0,105.894012 -88.339966,191.837982 -197.189941,191.837982c-108.849854,0 -199.199951,-85.962982 -197.189941,-191.837982c2.679932,-142.019989 111.090088,-199.866989 197.189941,-363.095001c91.459961,157.876999 197.189941,257.200012 197.189941,363.095001z" fill="#ff0000" id="path3556"/>
    <path d="m125.794968,174.819061a22.936045,14.603221 0 1 1 -45.872093,54.158279a22.936045,14.603221 0 1 1 45.872093,-54.158279z" transform="matrix(0.417019 -0.492348 0.485172 0.417235 -2440.77 431.47)" fill="#ff0000" id="path3541"/>
   </g>
  </g>
 </g>
</svg>